<svg xmlns="http://www.w3.org/2000/svg" viewBox="0 0 24 24" fill="none" stroke="currentColor" stroke-width="1.5">
  <path stroke-linecap="round" stroke-linejoin="round" d="m12 2.75 1.2 2.8a1 1 0 0 0 .84.6l3.02.24a1 1 0 0 1 .77.48l1.56 2.52a1 1 0 0 1-.11 1.17l-2 2.3a1 1 0 0 0-.22.86l.58 2.97a1 1 0 0 1-.48 1.04l-2.52 1.46a1 1 0 0 1-1.14-.06l-2.47-1.68a1 1 0 0 0-1.12 0l-2.47 1.68a1 1 0 0 1-1.14.06l-2.52-1.46a1 1 0 0 1-.48-1.04l.58-2.97a1 1 0 0 0-.22-.86l-2-2.3a1 1 0 0 1-.11-1.17l1.56-2.52a1 1 0 0 1 .77-.48l3.02-.24a1 1 0 0 0 .84-.6L12 2.75Z" />
  <circle cx="12" cy="12" r="2.5" />
</svg>
